<svg width="688" height="660" viewBox="0 0 688 660" fill="none" xmlns="http://www.w3.org/2000/svg">
    <g opacity=".5" clip-path="url(#5hgygsyw5a)">
        <path opacity=".04" d="M475.562 281.182c256.806 94.795-131.279 379.587-170.079 191.845-19.306-93.412-200.191-35.625-194.751-132.007 5.379-96.354 86.904-88.054 167.754-135.273 100.701-59.346 129.074 50.33 197.076 75.435z" stroke="#fff" stroke-width="2" stroke-miterlimit="10"/>
        <path opacity=".07" d="M477.55 276.356c240.926 99.459-120.513 379.433-171.986 200.882-25.373-88.007-203.339-50.337-192.459-143.506 10.765-93.102 90.011-92.265 169.128-131.251 98.667-48.623 129.695 46.78 195.324 73.875h-.007z" stroke="#FEFFFF" stroke-width="2" stroke-miterlimit="10"/>
        <path opacity=".11" d="M479.545 271.525c224.99 103.643-109.539 379.473-173.894 209.911-31.318-82.514-206.486-65.056-190.173-155.006 16.144-89.856 92.997-96.624 170.497-127.229 96.482-38.088 130.247 43.15 193.57 72.317v.007z" stroke="#FEFEFF" stroke-width="2" stroke-miterlimit="10"/>
        <path opacity=".15" d="M481.534 266.699c209.034 107.294-98.282 379.676-175.802 218.941-37.115-76.96-209.634-79.767-187.881-166.505 21.523-86.603 95.936-100.991 171.865-123.207 94.244-27.567 130.739 39.411 191.818 70.765v.006z" stroke="#FDFEFF" stroke-width="2" stroke-miterlimit="10"/>
        <path opacity=".19" d="M483.523 261.874c193.119 110.358-86.702 379.966-177.71 227.977-42.744-71.379-212.782-94.485-185.59-177.998 26.903-83.357 98.842-105.377 173.234-119.178 91.952-17.06 131.191 35.565 190.066 69.206v-.007z" stroke="#FDFEFF" stroke-width="2" stroke-miterlimit="10"/>
        <path opacity=".23" d="M485.511 257.042c177.305 112.815-74.77 380.229-179.624 237.007-48.19-65.825-215.93-109.197-183.304-189.497 32.288-80.111 101.699-109.791 174.608-115.156 89.614-6.6 131.623 31.576 188.313 67.653l.007-.007z" stroke="#FCFEFF" stroke-width="2" stroke-miterlimit="10"/>
        <path opacity=".26" d="M487.5 252.217c161.666 114.63-62.482 380.371-181.532 246.036-53.469-60.332-219.085-123.916-181.013-200.997 37.668-76.858 104.531-114.251 175.978-111.133 87.233 3.799 132.053 27.446 186.56 66.094h.007z" stroke="#FCFEFF" stroke-width="2" stroke-miterlimit="10"/>
        <path opacity=".3" d="M489.488 247.385c146.277 115.811-49.889 380.29-183.439 255.065-58.605-54.946-222.233-138.627-178.721-212.495 43.047-73.613 107.342-118.773 177.346-107.112 84.84 14.124 132.525 23.14 184.807 64.536l.007.006z" stroke="#FCFEFF" stroke-width="2" stroke-miterlimit="10"/>
        <path opacity=".34" d="M491.477 242.56c131.224 116.384-37.055 379.898-185.347 264.101-63.641-49.695-225.381-153.345-176.436-223.995 48.427-70.359 110.166-123.355 178.721-103.089 82.454 24.375 133.085 18.659 183.062 62.983z" stroke="#FBFDFF" stroke-width="2" stroke-miterlimit="10"/>
        <path opacity=".38" d="M493.465 237.728c116.59 116.405-24.071 379.156-187.254 273.131-68.616-44.58-228.53-168.057-174.144-235.488 53.813-67.113 113.018-127.998 180.089-99.067 80.109 34.552 133.786 13.976 181.309 61.424z" stroke="#FBFDFF" stroke-width="2" stroke-miterlimit="10"/>
        <path opacity=".41" d="M495.454 232.903c102.454 115.952-11.035 378.056-189.162 282.16C232.708 475.45 74.615 332.288 134.44 268.076c59.191-63.861 115.916-132.682 181.457-95.045 77.817 44.688 134.696 9.103 179.557 59.872z" stroke="#FAFDFF" stroke-width="2" stroke-miterlimit="10"/>
        <path opacity=".45" d="M497.442 228.071c88.892 115.156 1.982 376.625-191.07 291.197-78.571-34.769-234.824-197.488-169.559-258.487 64.57-60.615 118.868-137.392 182.832-91.023 75.586 54.797 135.903 4.029 177.804 58.313h-.007z" stroke="#FAFDFF" stroke-width="2" stroke-miterlimit="10"/>
        <path opacity=".49" d="M499.431 223.246c75.963 114.177 14.918 374.904-192.978 300.226-83.6-30.031-237.972-212.206-167.274-269.986 69.95-57.362 121.875-142.103 184.201-87.001 73.415 64.9 137.487-1.208 176.051 56.754v.007z" stroke="#F9FDFF" stroke-width="2" stroke-miterlimit="10"/>
        <path opacity=".53" d="M501.419 218.414c63.708 113.199 27.726 372.947-194.885 309.255-88.696-25.374-241.127-226.917-164.982-281.485 75.335-54.116 124.921-146.8 185.569-82.979 71.291 75.023 139.529-6.573 174.298 55.202v.007z" stroke="#F9FCFF" stroke-width="2" stroke-miterlimit="10"/>
        <path opacity=".56" d="M503.408 213.589c52.134 112.443 40.391 370.815-196.793 318.291-93.86-20.785-244.275-241.635-162.691-292.978 80.715-50.869 127.996-151.49 186.945-78.95 69.208 85.159 142.111-11.999 172.546 53.644l-.007-.007z" stroke="#F8FCFF" stroke-width="2" stroke-miterlimit="10"/>
        <path opacity=".6" d="M505.397 208.764c41.207 112.132 52.902 368.561-198.701 327.321-99.091-16.244-247.424-256.354-160.406-304.478 86.095-47.617 131.097-156.152 188.313-74.928 67.153 95.322 145.266-17.384 170.794 52.092v-.007z" stroke="#F8FCFF" stroke-width="2" stroke-miterlimit="10"/>
        <path d="M370.795 545.458C187.052 919.465-43.701 251.711 199.402 259.431c121.74 3.86 80.29-280.54 199.381-257.42 119.091 23.12 76.3 140.996 119.859 273.333 54.399 165.27-100.364 173.463-147.847 270.108v.006z" stroke="#FFFFFA" stroke-width="2" stroke-miterlimit="10"/>
        <path d="M376.012 549.46C190.322 899.935-41.187 271.187 194.353 258.568c117.028-6.27 98.774-281.681 212.485-251.428C520.537 37.306 487.735 153.46 521.5 281.526c42.697 159.635-96.475 175.413-145.494 267.934h.006z" stroke="#FFFFFA" stroke-width="2" stroke-miterlimit="10" style="mix-blend-mode:hard-light" opacity=".95"/>
        <path d="M381.223 553.462C194.07 880.364-39.09 290.872 189.304 257.71 301.431 241.433 306.554-25.118 414.9 12.269c108.299 37.204 85.043 151.726 109.472 275.438C554.8 441.822 431.874 465.003 381.23 553.462h-.007z" stroke="#FFFFFB" stroke-width="2" stroke-miterlimit="10" style="mix-blend-mode:hard-light" opacity=".9"/>
        <path d="M386.44 557.457C198.35 860.807-37.358 310.875 184.255 256.853 291.334 230.75 319.982-27.122 422.956 17.391 525.862 61.634 512.38 174.434 527.23 293.876c18.457 148.473-88.42 179.117-140.79 263.581z" stroke="#FFFFFB" stroke-width="2" stroke-miterlimit="10" style="mix-blend-mode:hard-light" opacity=".85"/>
        <path d="M391.658 561.459C203.224 841.298-35.902 331.323 179.213 255.99 281.114 220.304 333.41-29.126 431.011 22.52c97.513 51.281 93.826 162.314 99.084 277.537 6.512 142.791-84.22 180.893-138.437 261.402z" stroke="#FFFFFB" stroke-width="2" stroke-miterlimit="10" style="mix-blend-mode:hard-light" opacity=".8"/>
        <path d="M396.869 565.461C208.758 821.902-34.574 352.277 174.164 255.133c96.698-45.006 172.681-286.264 264.902-227.485 92.114 58.32 98.262 167.558 93.887 278.591-5.399 137.054-79.892 182.627-136.084 259.228v-.006z" stroke="#FFFFFC" stroke-width="2" stroke-miterlimit="10" style="mix-blend-mode:hard-light" opacity=".75"/>
        <path d="M402.086 569.463C214.993 802.696-33.212 373.771 169.115 254.276c91.521-54.056 191.157-287.41 278.014-221.505 86.721 65.365 102.73 172.76 88.689 279.643-17.25 131.284-75.403 184.341-133.732 257.049z" stroke="#FFFFFC" stroke-width="2" stroke-miterlimit="10" style="mix-blend-mode:hard-light" opacity=".7"/>
        <path d="M407.297 573.464C221.983 783.767-31.648 395.77 164.066 253.412 250.504 190.543 373.7-35.139 455.184 37.899c81.328 72.405 107.267 177.951 83.499 280.689-29.026 125.488-70.739 186.062-131.38 254.876h-.006z" stroke="#FFFFFC" stroke-width="2" stroke-miterlimit="10" style="mix-blend-mode:hard-light" opacity=".65"/>
        <path d="M412.514 577.466C229.736 765.215-29.748 418.182 159.017 252.555c81.497-71.507 228.111-289.699 304.222-209.527 75.936 79.443 111.858 183.133 78.302 281.742-40.728 119.691-65.885 187.837-129.027 252.696z" stroke="#FFFFFD" stroke-width="2" stroke-miterlimit="10" style="mix-blend-mode:hard-light" opacity=".6"/>
        <path d="M417.732 581.468C238.256 747.143-27.448 440.897 153.968 251.697 230.693 171.674 400.562-39.148 471.294 48.15c70.537 86.482 116.523 188.33 73.112 282.795-52.35 113.914-60.809 189.719-126.674 250.523z" stroke="#FFFFFD" stroke-width="2" stroke-miterlimit="10" style="mix-blend-mode:hard-light" opacity=".55"/>
        <path d="M422.942 585.47C247.491 729.671-24.712 463.795 148.919 250.834 221.053 162.368 413.99-41.152 479.35 53.279c65.144 93.52 121.241 193.566 67.914 283.847-63.903 108.178-55.504 191.785-124.322 248.344z" stroke="#FFFFFD" stroke-width="2" stroke-miterlimit="10" style="mix-blend-mode:hard-light" opacity=".5"/>
        <path d="M428.16 589.472C257.353 712.928-21.55 486.767 143.87 249.977c67.699-96.908 283.548-293.134 343.542-191.57 59.751 100.56 126.007 198.858 62.717 284.894-75.397 102.509-49.963 194.126-121.969 246.171z" stroke="#FFFFFD" stroke-width="2" stroke-miterlimit="10" style="mix-blend-mode:hard-light" opacity=".45"/>
        <path d="M433.377 593.474C267.707 697.015-18.012 509.732 138.828 249.12 202.233 143.749 440.846-45.16 495.467 63.53c54.352 107.598 130.8 204.202 57.527 285.946-86.87 96.908-44.187 196.853-119.617 243.991v.007z" stroke="#FFFFFE" stroke-width="2" stroke-miterlimit="10" style="mix-blend-mode:hard-light" opacity=".4"/>
        <path d="M438.588 597.476c-160.271 84.565-452.75-64.86-304.816-349.22C193.018 134.389 454.281-47.165 503.523 68.659c48.959 114.643 135.599 209.614 52.329 286.999-98.329 91.374-38.214 200.105-117.264 241.818z" stroke="#FFFFFE" stroke-width="2" stroke-miterlimit="10" style="mix-blend-mode:hard-light" opacity=".35"/>
        <path d="M443.805 601.477C288.92 668.064-10.051 555.385 128.724 247.399 183.891 124.968 467.708-49.169 511.578 73.788c43.566 121.681 140.392 215.08 47.139 288.051-109.796 85.915-32.1 204.04-114.912 239.638z" stroke="#FFFFFE" stroke-width="2" stroke-miterlimit="10" style="mix-blend-mode:hard-light" opacity=".3"/>
        <path d="M449.016 605.479c-149.863 49.635-454.76-27.446-325.341-358.937C174.845 115.48 481.136-51.167 519.64 78.91c38.167 128.72 145.165 220.594 41.942 289.097-121.296 80.503-25.966 208.784-112.559 237.465l-.007.007z" stroke="#fff" stroke-width="2" stroke-miterlimit="10" style="mix-blend-mode:hard-light" opacity=".25"/>
        <path d="M454.233 609.481c-145.636 33.655-455.514-8.948-335.607-363.803 47.226-139.754 375.945-298.85 409.069-161.64 32.775 135.76 149.917 226.135 36.745 290.151-132.822 75.131-19.98 214.439-110.207 235.285v.007z" stroke="#fff" stroke-width="2" stroke-miterlimit="10" style="mix-blend-mode:hard-light" opacity=".2"/>
        <path opacity=".2" d="M166.439 447.052c-425.935-35.935 91.891-570.778 190.308-306.866 49.282 132.155 294.509-34.721 324.816 102.894 30.306 137.614-97.366 142.487-200.932 246.157-129.344 129.469-204.121-32.899-314.192-42.192v.007z" stroke="#fff" stroke-width="2" stroke-miterlimit="10"/>
        <path opacity=".21" d="M164.996 454.367c-404.593-48.096 76.455-566.871 190.349-319.958 56.643 122.809 303.595-15.407 324.97 119.522 21.45 134.862-100.29 149.715-204.16 241.042-129.209 114.501-204.127-27.878-311.152-40.606h-.007z" stroke="#fff" stroke-width="2.06" stroke-miterlimit="10"/>
        <path opacity=".23" d="M163.56 461.683c-382.995-59.717 60.715-563.254 190.39-333.057 63.842 113.34 312.675 3.914 325.118 136.143 12.592 132.108-103.539 156.518-207.389 235.927-129.472 99.006-204.013-22.79-308.119-39.02v.007z" stroke="#fff" stroke-width="2.12" stroke-miterlimit="10"/>
        <path opacity=".24" d="M162.118 468.991c-361.169-70.717 44.577-559.866 190.429-346.149 70.833 103.792 321.756 23.229 325.268 152.772 3.734 129.355-106.567 163.502-210.619 230.811-129.465 83.749-203.79-17.6-305.085-37.434h.007z" stroke="#fff" stroke-width="2.19" stroke-miterlimit="10"/>
        <path opacity=".25" d="M160.682 476.307c-339.14-81.002 27.968-556.6 190.477-359.241 77.58 94.215 330.842 42.542 325.415 169.393-5.123 126.601-109.539 170.486-213.847 225.696-129.398 68.49-203.446-12.303-302.045-35.848z" stroke="#fff" stroke-width="2.25" stroke-miterlimit="10"/>
        <path opacity=".26" d="M159.24 483.615c-316.97-90.49 10.839-553.32 190.517-372.333 84.058 84.673 339.921 61.857 325.57 186.022-13.98 123.854-112.458 177.484-217.076 220.58-129.249 53.246-203.008-6.856-299.011-34.262v-.007z" stroke="#FFFEFF" stroke-width="2.31" stroke-miterlimit="10"/>
        <path opacity=".28" d="M157.804 490.931c-294.725-99.108-6.802-549.872 190.557-385.432 90.287 75.225 349.009 81.17 325.719 202.643-22.838 121.101-115.309 184.51-220.305 215.465-129.027 38.041-202.496-1.249-295.978-32.683l.007.007z" stroke="#FFFEFF" stroke-width="2.38" stroke-miterlimit="10"/>
        <path opacity=".29" d="M156.361 498.246c-272.493-106.794-24.887-546.092 190.605-398.53 96.3 65.945 358.088 100.484 325.867 219.271-31.696 118.347-118.107 191.589-223.534 210.349-128.737 22.911-201.923 4.576-292.938-31.097v.007z" stroke="#FFFEFF" stroke-width="2.44" stroke-miterlimit="10"/>
        <path opacity=".3" d="M154.925 505.555C-95.465 392.052 111.602-36.307 345.571 93.939c102.157 56.869 367.168 119.798 326.022 235.892C631.04 445.426 550.729 528.58 444.83 535.066c-128.4 7.868-201.35 10.629-289.905-29.511z" stroke="#FFFEFF" stroke-width="2.5" stroke-miterlimit="10"/>
        <path opacity=".31" d="M153.483 512.87C-75.033 393.631 91.521-24.24 344.175 88.155 452.11 136.171 720.43 227.268 670.346 340.676c-49.411 112.848-123.614 205.99-229.985 200.119-128.05-7.066-200.824 16.972-286.865-27.925h-.013z" stroke="#FFFEFF" stroke-width="2.56" stroke-miterlimit="10"/>
        <path opacity=".33" d="M152.047 520.179C-54.992 396.149 71.372-11.634 342.773 82.372c113.685 39.377 385.335 158.427 326.319 269.142-58.268 110.095-126.391 213.319-233.214 195.004-127.733-21.899-200.419 23.626-283.831-26.339z" stroke="#FFFEFF" stroke-width="2.62" stroke-miterlimit="10"/>
        <path opacity=".34" d="M150.611 527.494C-35.484 399.53 51.285 1.478 341.378 76.595c119.475 30.935 394.415 177.741 326.467 285.771-67.126 107.341-129.209 220.722-236.443 189.888-127.463-36.644-200.231 30.638-280.797-24.76h.006z" stroke="#FFFEFF" stroke-width="2.69" stroke-miterlimit="10"/>
        <path opacity=".35" d="M149.169 534.809C-16.663 403.639 31.345 15.029 339.982 70.812c125.34 22.654 403.502 197.055 326.623 302.398-75.984 104.588-132.088 228.173-239.672 184.773-127.268-51.335-200.386 38.028-277.758-23.174h-.006z" stroke="#FFFEFF" stroke-width="2.75" stroke-miterlimit="10"/>
        <path opacity=".36" d="M147.733 542.118C1.321 408.275 11.614 28.938 338.587 65.028c131.299 14.496 412.582 216.369 326.77 319.02-84.84 101.835-135.033 235.65-242.9 179.658-127.153-66-201.006 45.802-274.724-21.588z" stroke="#FFFDFF" stroke-width="2.81" stroke-miterlimit="10"/>
        <path opacity=".38" d="M146.29 549.433C18.322 413.168-7.867 43.103 337.192 59.245 474.564 65.669 758.86 294.928 664.11 394.893c-93.705 99.088-138.039 243.134-246.129 174.543-127.113-80.658-202.253 53.927-271.691-20.003z" stroke="#FFFDFF" stroke-width="2.88" stroke-miterlimit="10"/>
        <path opacity=".39" d="M144.855 556.742C34.244 418.014-27.098 57.457 335.79 53.468c143.56-1.579 430.748 254.998 327.067 352.27-102.563 96.334-141.1 250.604-249.359 169.427-127.132-95.329-204.268 62.342-268.65-18.416l.007-.007z" stroke="#FFFDFF" stroke-width="2.94" stroke-miterlimit="10"/>
        <path opacity=".4" d="M143.412 564.057C49.026 422.441-46.094 71.925 334.394 47.685c149.857-9.55 439.829 274.311 327.222 368.898-111.42 93.581-144.2 258.061-252.587 164.312-127.207-110.027-207.147 70.906-265.617-16.838z" stroke="#FFFDFF" stroke-width="3" stroke-miterlimit="10"/>
    </g>
    <defs>
        <clipPath id="5hgygsyw5a">
            <path fill="#fff" d="M0 0h688v660H0z"/>
        </clipPath>
    </defs>
</svg>
